<?xml version="1.0" encoding="UTF-8" standalone="no"?>
<!DOCTYPE svg PUBLIC "-//W3C//DTD SVG 1.1//EN" "http://www.w3.org/Graphics/SVG/1.1/DTD/svg11.dtd">
<svg width="100%" height="100%" viewBox="0 0 115 102" version="1.1" xmlns="http://www.w3.org/2000/svg" xmlns:xlink="http://www.w3.org/1999/xlink" xml:space="preserve" xmlns:serif="http://www.serif.com/" style="fill-rule:evenodd;clip-rule:evenodd;stroke-linecap:round;stroke-linejoin:round;stroke-miterlimit:1.5;">
    <g transform="matrix(1,0,0,1,-8.95761,-15.603)">
        <g id="Tuxedo-Icon" serif:id="Tuxedo Icon">
            <path d="M92.449,30.316L109.857,53.868L97.398,61.548L103.201,66.838L68.385,112.577" style="fill:none;stroke:black;stroke-width:4.17px;"/>
            <path d="M41.249,29.121L23.158,53.185L35.105,61.377L29.473,65.985L64.289,113.26" style="fill:none;stroke:black;stroke-width:4.17px;"/>
            <path d="M65.654,33.729L55.926,45.676C55.926,45.676 43.98,30.828 43.126,28.95C42.273,27.073 45.174,60.182 55.756,86.636C66.337,113.089 66.678,114.113 66.678,114.113" style="fill:none;stroke:black;stroke-width:4.17px;"/>
            <path d="M66.678,34.07L77.089,45.676L89.718,28.95C89.718,28.95 89.377,46.358 81.185,71.617C72.993,96.876 66.849,113.942 66.849,113.942" style="fill:none;stroke:black;stroke-width:4.17px;"/>
            <path d="M66.337,34.07L66.508,62.401" style="fill:none;stroke:black;stroke-width:4.17px;"/>
            <path d="M46.198,17.857L86.817,17.857L90.23,26.22C90.23,26.22 90.401,27.585 92.79,27.926C95.18,28.268 99.276,31.169 101.494,31.852C103.713,32.534 108.833,35.436 110.71,36.118C112.588,36.801 116.342,39.19 117.708,40.556C119.073,41.921 121.292,47.553 121.462,49.089C121.633,50.625 119.705,57.979 118.902,60.012C118.229,61.718 115.919,69.569 114.294,71.617C112.929,73.665 110.54,80.321 110.54,80.321L105.932,91.414L100.812,103.02C100.812,103.02 98.081,110.7 96.033,112.065C93.985,113.43 90.913,115.308 88.694,115.137C86.476,114.966 66.508,114.796 66.508,114.796L45.345,114.966C45.345,114.966 41.454,114.383 38.006,112.577C34.422,110.7 26.913,92.438 26.913,92.438L18.38,71.446C18.38,71.446 11.041,54.38 11.041,51.478C11.041,48.577 13.772,41.58 15.649,40.214C17.526,38.849 24.694,34.924 27.596,33.9C30.497,32.876 35.958,30.316 37.836,29.462C39.713,28.609 41.078,27.756 42.273,26.22C43.468,24.684 46.198,17.857 46.198,17.857Z" style="fill:none;stroke:black;stroke-width:4.17px;"/>
            <path d="M86.817,17.857L65.996,33.9L46.198,17.686" style="fill:none;stroke:black;stroke-width:4.17px;"/>
        </g>
    </g>
</svg>
